<mxfile host="app.diagrams.net" agent="Mozilla/5.0 (Windows NT 10.0; Win64; x64) AppleWebKit/537.36 (KHTML, like Gecko) Chrome/132.0.0.0 Safari/537.36" version="26.0.14">
  <diagram name="Page-1" id="XQFU7v4uMDN4i3KKFXCO">
    <mxGraphModel dx="1723" dy="1824" grid="1" gridSize="10" guides="1" tooltips="1" connect="1" arrows="1" fold="1" page="1" pageScale="1" pageWidth="827" pageHeight="1169" math="0" shadow="0">
      <root>
        <mxCell id="0" />
        <mxCell id="1" parent="0" />
        <mxCell id="HHC9imh6yudImMxVMGGT-3" style="edgeStyle=orthogonalEdgeStyle;rounded=0;orthogonalLoop=1;jettySize=auto;html=1;" edge="1" parent="1" source="HHC9imh6yudImMxVMGGT-1" target="HHC9imh6yudImMxVMGGT-2">
          <mxGeometry relative="1" as="geometry" />
        </mxCell>
        <mxCell id="HHC9imh6yudImMxVMGGT-1" value="Mulai" style="ellipse;whiteSpace=wrap;html=1;" vertex="1" parent="1">
          <mxGeometry x="330" y="-30" width="120" height="80" as="geometry" />
        </mxCell>
        <mxCell id="HHC9imh6yudImMxVMGGT-4" style="edgeStyle=orthogonalEdgeStyle;rounded=0;orthogonalLoop=1;jettySize=auto;html=1;" edge="1" parent="1" source="HHC9imh6yudImMxVMGGT-2" target="HHC9imh6yudImMxVMGGT-5">
          <mxGeometry relative="1" as="geometry">
            <mxPoint x="600" y="110" as="targetPoint" />
          </mxGeometry>
        </mxCell>
        <mxCell id="HHC9imh6yudImMxVMGGT-6" style="edgeStyle=orthogonalEdgeStyle;rounded=0;orthogonalLoop=1;jettySize=auto;html=1;" edge="1" parent="1" source="HHC9imh6yudImMxVMGGT-2" target="HHC9imh6yudImMxVMGGT-7">
          <mxGeometry relative="1" as="geometry">
            <mxPoint x="390" y="200" as="targetPoint" />
          </mxGeometry>
        </mxCell>
        <mxCell id="HHC9imh6yudImMxVMGGT-2" value="Studi Pendahuluan" style="rounded=0;whiteSpace=wrap;html=1;" vertex="1" parent="1">
          <mxGeometry x="330" y="80" width="120" height="60" as="geometry" />
        </mxCell>
        <mxCell id="HHC9imh6yudImMxVMGGT-5" value="&lt;p class=&quot;MsoNormal&quot;&gt;Output:&lt;/p&gt;&lt;p class=&quot;MsoNormal&quot;&gt;&lt;b style=&quot;background-color: transparent; color: light-dark(rgb(0, 0, 0), rgb(255, 255, 255)); text-indent: -18pt;&quot;&gt;Studi Literatur&lt;/b&gt;&lt;span style=&quot;background-color: transparent; color: light-dark(rgb(0, 0, 0), rgb(255, 255, 255)); text-indent: -18pt;&quot;&gt;: Memahami penelitian terkait&amp;nbsp;&lt;/span&gt;&lt;span style=&quot;background-color: transparent; color: light-dark(rgb(0, 0, 0), rgb(255, 255, 255)); text-indent: -18pt;&quot;&gt;pengembangan sistem&lt;/span&gt;&lt;/p&gt;&lt;p class=&quot;MsoNormal&quot;&gt;&lt;b style=&quot;text-indent: -18pt; background-color: transparent; color: light-dark(rgb(0, 0, 0), rgb(255, 255, 255));&quot;&gt;Studi Lapangan&lt;/b&gt;&lt;span style=&quot;text-indent: -18pt; background-color: transparent; color: light-dark(rgb(0, 0, 0), rgb(255, 255, 255));&quot;&gt;: Pengamatan langsung sistem yang sudah berjalan&lt;/span&gt;&lt;/p&gt;" style="rounded=1;whiteSpace=wrap;html=1;" vertex="1" parent="1">
          <mxGeometry x="770" y="70" width="410" height="80" as="geometry" />
        </mxCell>
        <mxCell id="HHC9imh6yudImMxVMGGT-8" style="edgeStyle=orthogonalEdgeStyle;rounded=0;orthogonalLoop=1;jettySize=auto;html=1;exitX=1;exitY=0.5;exitDx=0;exitDy=0;" edge="1" parent="1" source="HHC9imh6yudImMxVMGGT-7" target="HHC9imh6yudImMxVMGGT-9">
          <mxGeometry relative="1" as="geometry">
            <mxPoint x="540" y="200" as="targetPoint" />
          </mxGeometry>
        </mxCell>
        <mxCell id="HHC9imh6yudImMxVMGGT-16" style="edgeStyle=orthogonalEdgeStyle;rounded=0;orthogonalLoop=1;jettySize=auto;html=1;" edge="1" parent="1" source="HHC9imh6yudImMxVMGGT-7" target="HHC9imh6yudImMxVMGGT-17">
          <mxGeometry relative="1" as="geometry">
            <mxPoint x="390" y="320" as="targetPoint" />
          </mxGeometry>
        </mxCell>
        <mxCell id="HHC9imh6yudImMxVMGGT-7" value="Pengumpulan Data" style="rounded=0;whiteSpace=wrap;html=1;" vertex="1" parent="1">
          <mxGeometry x="330" y="190" width="120" height="60" as="geometry" />
        </mxCell>
        <mxCell id="HHC9imh6yudImMxVMGGT-9" value="&lt;p class=&quot;MsoNormal&quot;&gt;Output:&lt;/p&gt;&lt;p style=&quot;text-indent: -24px;&quot; class=&quot;MsoNormal&quot;&gt;Mendapatkan data dari wawancara user&lt;/p&gt;" style="rounded=1;whiteSpace=wrap;html=1;" vertex="1" parent="1">
          <mxGeometry x="770" y="190" width="410" height="60" as="geometry" />
        </mxCell>
        <mxCell id="HHC9imh6yudImMxVMGGT-19" style="edgeStyle=orthogonalEdgeStyle;rounded=0;orthogonalLoop=1;jettySize=auto;html=1;" edge="1" parent="1" source="HHC9imh6yudImMxVMGGT-17" target="HHC9imh6yudImMxVMGGT-20">
          <mxGeometry relative="1" as="geometry">
            <mxPoint x="770" y="400" as="targetPoint" />
          </mxGeometry>
        </mxCell>
        <mxCell id="HHC9imh6yudImMxVMGGT-21" style="edgeStyle=orthogonalEdgeStyle;rounded=0;orthogonalLoop=1;jettySize=auto;html=1;" edge="1" parent="1" source="HHC9imh6yudImMxVMGGT-17" target="HHC9imh6yudImMxVMGGT-23">
          <mxGeometry relative="1" as="geometry">
            <mxPoint x="390" y="545" as="targetPoint" />
          </mxGeometry>
        </mxCell>
        <mxCell id="HHC9imh6yudImMxVMGGT-17" value="Metode Extreme Programming" style="swimlane;" vertex="1" parent="1">
          <mxGeometry x="60" y="290" width="660" height="240" as="geometry">
            <mxRectangle x="60" y="300" width="200" height="30" as="alternateBounds" />
          </mxGeometry>
        </mxCell>
        <mxCell id="HHC9imh6yudImMxVMGGT-26" value="Planning" style="rounded=0;whiteSpace=wrap;html=1;" vertex="1" parent="HHC9imh6yudImMxVMGGT-17">
          <mxGeometry x="20" y="40" width="110" height="30" as="geometry" />
        </mxCell>
        <mxCell id="HHC9imh6yudImMxVMGGT-32" style="edgeStyle=orthogonalEdgeStyle;rounded=0;orthogonalLoop=1;jettySize=auto;html=1;entryX=0;entryY=0.5;entryDx=0;entryDy=0;" edge="1" parent="HHC9imh6yudImMxVMGGT-17" source="HHC9imh6yudImMxVMGGT-28" target="HHC9imh6yudImMxVMGGT-29">
          <mxGeometry relative="1" as="geometry" />
        </mxCell>
        <mxCell id="HHC9imh6yudImMxVMGGT-28" value="Design" style="rounded=0;whiteSpace=wrap;html=1;" vertex="1" parent="HHC9imh6yudImMxVMGGT-17">
          <mxGeometry x="180" y="40" width="100" height="30" as="geometry" />
        </mxCell>
        <mxCell id="HHC9imh6yudImMxVMGGT-27" style="edgeStyle=orthogonalEdgeStyle;rounded=0;orthogonalLoop=1;jettySize=auto;html=1;" edge="1" parent="HHC9imh6yudImMxVMGGT-17" source="HHC9imh6yudImMxVMGGT-26" target="HHC9imh6yudImMxVMGGT-28">
          <mxGeometry relative="1" as="geometry">
            <mxPoint x="180" y="55" as="targetPoint" />
          </mxGeometry>
        </mxCell>
        <mxCell id="HHC9imh6yudImMxVMGGT-33" style="edgeStyle=orthogonalEdgeStyle;rounded=0;orthogonalLoop=1;jettySize=auto;html=1;" edge="1" parent="HHC9imh6yudImMxVMGGT-17" source="HHC9imh6yudImMxVMGGT-29" target="HHC9imh6yudImMxVMGGT-30">
          <mxGeometry relative="1" as="geometry" />
        </mxCell>
        <mxCell id="HHC9imh6yudImMxVMGGT-29" value="Coding" style="rounded=0;whiteSpace=wrap;html=1;" vertex="1" parent="HHC9imh6yudImMxVMGGT-17">
          <mxGeometry x="330" y="40" width="100" height="30" as="geometry" />
        </mxCell>
        <mxCell id="HHC9imh6yudImMxVMGGT-36" style="edgeStyle=orthogonalEdgeStyle;rounded=0;orthogonalLoop=1;jettySize=auto;html=1;entryX=1;entryY=0.5;entryDx=0;entryDy=0;" edge="1" parent="HHC9imh6yudImMxVMGGT-17" source="HHC9imh6yudImMxVMGGT-30" target="HHC9imh6yudImMxVMGGT-34">
          <mxGeometry relative="1" as="geometry">
            <Array as="points">
              <mxPoint x="540" y="130" />
            </Array>
          </mxGeometry>
        </mxCell>
        <mxCell id="HHC9imh6yudImMxVMGGT-30" value="Testing" style="rounded=0;whiteSpace=wrap;html=1;" vertex="1" parent="HHC9imh6yudImMxVMGGT-17">
          <mxGeometry x="490" y="40" width="100" height="30" as="geometry" />
        </mxCell>
        <mxCell id="HHC9imh6yudImMxVMGGT-31" value="Release Software Increment" style="rounded=0;whiteSpace=wrap;html=1;" vertex="1" parent="HHC9imh6yudImMxVMGGT-17">
          <mxGeometry x="280" y="200" width="100" height="30" as="geometry" />
        </mxCell>
        <mxCell id="HHC9imh6yudImMxVMGGT-38" style="edgeStyle=orthogonalEdgeStyle;rounded=0;orthogonalLoop=1;jettySize=auto;html=1;exitX=0.5;exitY=1;exitDx=0;exitDy=0;entryX=0.5;entryY=0;entryDx=0;entryDy=0;" edge="1" parent="HHC9imh6yudImMxVMGGT-17" source="HHC9imh6yudImMxVMGGT-34" target="HHC9imh6yudImMxVMGGT-31">
          <mxGeometry relative="1" as="geometry" />
        </mxCell>
        <mxCell id="HHC9imh6yudImMxVMGGT-40" value="Ya" style="edgeLabel;html=1;align=center;verticalAlign=middle;resizable=0;points=[];" vertex="1" connectable="0" parent="HHC9imh6yudImMxVMGGT-38">
          <mxGeometry x="-0.6074" relative="1" as="geometry">
            <mxPoint as="offset" />
          </mxGeometry>
        </mxCell>
        <mxCell id="HHC9imh6yudImMxVMGGT-34" value="Hasil Pengujian Sesuai?" style="rhombus;whiteSpace=wrap;html=1;" vertex="1" parent="HHC9imh6yudImMxVMGGT-17">
          <mxGeometry x="290" y="90" width="80" height="80" as="geometry" />
        </mxCell>
        <mxCell id="HHC9imh6yudImMxVMGGT-37" style="edgeStyle=orthogonalEdgeStyle;rounded=0;orthogonalLoop=1;jettySize=auto;html=1;entryX=0.428;entryY=1.011;entryDx=0;entryDy=0;entryPerimeter=0;" edge="1" parent="HHC9imh6yudImMxVMGGT-17" source="HHC9imh6yudImMxVMGGT-34" target="HHC9imh6yudImMxVMGGT-26">
          <mxGeometry relative="1" as="geometry" />
        </mxCell>
        <mxCell id="HHC9imh6yudImMxVMGGT-42" value="Tidak" style="edgeLabel;html=1;align=center;verticalAlign=middle;resizable=0;points=[];" vertex="1" connectable="0" parent="HHC9imh6yudImMxVMGGT-37">
          <mxGeometry x="-0.4369" relative="1" as="geometry">
            <mxPoint as="offset" />
          </mxGeometry>
        </mxCell>
        <mxCell id="HHC9imh6yudImMxVMGGT-20" value="&lt;p class=&quot;MsoNormal&quot;&gt;Output:&lt;/p&gt;&lt;p style=&quot;text-indent: -24px;&quot; class=&quot;MsoNormal&quot;&gt;Fitur dan atau fungsi aplikasi&lt;/p&gt;" style="rounded=1;whiteSpace=wrap;html=1;" vertex="1" parent="1">
          <mxGeometry x="770" y="380" width="410" height="60" as="geometry" />
        </mxCell>
        <mxCell id="HHC9imh6yudImMxVMGGT-24" style="edgeStyle=orthogonalEdgeStyle;rounded=0;orthogonalLoop=1;jettySize=auto;html=1;" edge="1" parent="1" source="HHC9imh6yudImMxVMGGT-23" target="HHC9imh6yudImMxVMGGT-25">
          <mxGeometry relative="1" as="geometry">
            <mxPoint x="390" y="660" as="targetPoint" />
          </mxGeometry>
        </mxCell>
        <mxCell id="HHC9imh6yudImMxVMGGT-43" style="edgeStyle=orthogonalEdgeStyle;rounded=0;orthogonalLoop=1;jettySize=auto;html=1;" edge="1" parent="1" source="HHC9imh6yudImMxVMGGT-23" target="HHC9imh6yudImMxVMGGT-44">
          <mxGeometry relative="1" as="geometry">
            <mxPoint x="770" y="600" as="targetPoint" />
          </mxGeometry>
        </mxCell>
        <mxCell id="HHC9imh6yudImMxVMGGT-23" value="Kesimpulan" style="rounded=0;whiteSpace=wrap;html=1;" vertex="1" parent="1">
          <mxGeometry x="330" y="570" width="120" height="60" as="geometry" />
        </mxCell>
        <mxCell id="HHC9imh6yudImMxVMGGT-25" value="Selesai" style="ellipse;whiteSpace=wrap;html=1;" vertex="1" parent="1">
          <mxGeometry x="330" y="670" width="120" height="80" as="geometry" />
        </mxCell>
        <mxCell id="HHC9imh6yudImMxVMGGT-44" value="&lt;p class=&quot;MsoNormal&quot;&gt;Output:&lt;/p&gt;&lt;p class=&quot;MsoNormal&quot;&gt;Merangkum hasil dari penelitian yang dilakukan&lt;/p&gt;" style="rounded=1;whiteSpace=wrap;html=1;" vertex="1" parent="1">
          <mxGeometry x="770" y="570" width="410" height="60" as="geometry" />
        </mxCell>
      </root>
    </mxGraphModel>
  </diagram>
</mxfile>
